<?xml version="1.0" encoding="UTF-8" standalone="no"?>
<svg
   width="56"
   height="56"
   viewBox="0 0 56 56"
   version="1.1"
   id="svg1"
   xmlns="http://www.w3.org/2000/svg"
   xmlns:svg="http://www.w3.org/2000/svg">
  <defs
     id="defs1" />
  <circle
     style="fill:#004990;fill-opacity:1;stroke-width:1.01216"
     id="path2"
     cx="28"
     cy="28"
     r="28" />
  <path
     d="M 27.999906,50.5 C 40.286657,50.5 50.5,40.308774 50.5,28 50.5,15.713249 40.264633,5.5 27.977882,5.5 15.669014,5.5 5.5,15.713249 5.5,28 c 0,12.308774 10.191132,22.5 22.499906,22.5 z m 0,-3.750016 C 17.588163,46.749984 9.2719451,38.411743 9.2719451,28 c 0,-10.389719 8.2941939,-18.7499843 18.7059369,-18.7499843 10.389626,0 18.749891,8.3602653 18.772102,18.7499843 0.02212,10.411743 -8.360359,18.749984 -18.750078,18.749984 z M 24.117561,36.11763 35.919042,29.147103 c 0.860234,-0.52941 0.83821,-1.742678 0,-2.227948 L 24.117561,19.904393 c -0.904375,-0.52941 -2.095619,-0.110305 -2.095619,0.882351 v 14.448535 c 0,1.01468 1.124986,1.455903 2.095619,0.882351 z"
     id="path1"
     style="fill:#ff9500;fill-opacity:1;stroke-width:0.941174" />
</svg>
